#!OML:ASF I:\Actors\actors\Patient Classification 1\Patient 1\Session 1\Subject1.ASF
:FULLY-SPECIFIED
:DEGREES
887
root -0.39313 17.5242 7.6037 7.19706 -2.22484 -7.04221
lowerback 1.90349 2.60438 8.97877
upperback -9.02565 4.09176 -1.19922
thorax -10.0768 1.19587 -6.72688
lowerneck -8.87386 -5.70288 -4.07583
upperneck 29.4366 -10.6601 10.6175
head 11.9267 -4.06626 3.27154
rclavicle 2.64384e-014 8.74653e-015
rhumerus -25.7949 34.5331 -101.986
rradius 96.059
rwrist -9.17229
rhand -10.7025 -52.3526
rfingers 7.12502
rthumb 15.3071 -441.766
lclavicle 2.64384e-014 8.74653e-015
lhumerus -50.9978 29.3081 61.7508
lradius 109.354
lwrist 65.3444
lhand -44.1745 4.84258
lfingers 7.12502
lthumb -16.9891 34.1196
rfemur 0.930039 26.5293 25.8941
rtibia 0.239143
rfoot -12.1154 -23.4409
rtoes 3.85039
lfemur 10.1745 -43.2375 -18.2668
ltibia -5.32185
lfoot -17.7204 50.1475
ltoes 7.11724
888
root -0.393176 17.5244 7.60316 7.19383 -2.22493 -7.05583
lowerback 1.91827 2.5944 8.99324
upperback -9.03016 4.08108 -1.19975
thorax -10.0923 1.18825 -6.73599
lowerneck -8.89219 -5.68781 -4.02288
upperneck 29.47 -10.6372 10.5662
head 11.9351 -4.05425 3.24644
rclavicle -3.24019e-014 -1.43125e-014
rhumerus -25.7742 34.5428 -101.989
rradius 96.079
rwrist -9.13221
rhand -10.6906 -52.3173
rfingers 7.12502
rthumb 15.3186 -441.73
lclavicle -3.24019e-014 -1.43125e-014
lhumerus -51.0232 29.3147 61.7012
lradius 109.371
lwrist 65.3025
lhand -44.153 4.87398
lfingers 7.12502
lthumb -16.9685 34.1528
rfemur 0.907073 26.5228 25.9084
rtibia 0.284395
rfoot -12.1168 -23.4189
rtoes 3.75453
lfemur 10.1919 -43.2685 -18.2656
ltibia -5.32758
lfoot -17.6778 50.2018
ltoes 6.94429
889
root -0.394375 17.5244 7.60235 7.18883 -2.23308 -7.09565
lowerback 1.93858 2.58353 8.99674
upperback -9.03823 4.0713 -1.17493
thorax -10.1172 1.18258 -6.71187
lowerneck -8.89595 -5.67387 -3.98363
upperneck 29.4952 -10.6138 10.5194
head 11.9381 -4.04381 3.2257
rclavicle -3.37934e-015 0
rhumerus -25.7845 34.5747 -101.981
rradius 96.0956
rwrist -9.10305
rhand -10.7137 -52.223
rfingers 7.12502
rthumb 15.2962 -441.637
lclavicle -3.37934e-015 0
lhumerus -51.0742 29.3389 61.6469
lradius 109.391
lwrist 65.2808
lhand -44.1768 4.7255
lfingers 7.12502
lthumb -16.9914 34.0023
rfemur 0.880205 26.5095 25.9531
rtibia 0.329143
rfoot -12.0779 -23.3822
rtoes 3.62135
lfemur 10.1717 -43.2049 -18.19
ltibia -5.32503
lfoot -17.6421 50.1507
ltoes 6.88083
890
root -0.396195 17.5249 7.6023 7.17626 -2.2471 -7.09957
lowerback 1.92594 2.58142 8.96991
upperback -9.02188 4.06446 -1.17121
thorax -10.0933 1.18366 -6.69057
lowerneck -8.88207 -5.66489 -3.99548
upperneck 29.461 -10.6101 10.5719
head 11.9255 -4.03915 3.2478
rclavicle -2.48481e-014 8.74653e-015
rhumerus -25.7468 34.6206 -101.947
rradius 96.0923
rwrist -9.08159
rhand -10.8012 -52.1411
rfingers 7.12502
rthumb 15.212 -441.562
lclavicle -2.48481e-014 8.74653e-015
lhumerus -51.0565 29.3418 61.6356
lradius 109.404
lwrist 65.2725
lhand -44.2138 4.72369
lfingers 7.12502
lthumb -17.027 33.9975
rfemur 0.892032 26.5079 25.9658
rtibia 0.324996
rfoot -12.0913 -23.365
rtoes 3.84131
lfemur 10.1611 -43.11 -18.1516
ltibia -5.33678
lfoot -17.6066 50.0758
ltoes 6.93256
891
root -0.396316 17.5254 7.60182 7.17469 -2.24217 -7.07591
lowerback 1.91051 2.58277 8.95401
upperback -9.00963 4.06136 -1.18844
thorax -10.07 1.18444 -6.69857
lowerneck -8.87705 -5.66238 -4.00988
upperneck 29.4343 -10.6173 10.6279
head 11.9193 -4.0386 3.27009
rclavicle 3.61788e-014 1.59028e-015
rhumerus -25.6951 34.6587 -101.902
rradius 96.0895
rwrist -9.08232
rhand -10.8932 -52.0636
rfingers 7.12502
rthumb 15.1234 -441.491
lclavicle 3.61788e-014 1.59028e-015
lhumerus -51.0298 29.2733 61.6562
lradius 109.43
lwrist 65.2584
lhand -44.2325 4.886
lfingers 7.12502
lthumb -17.045 34.1582
rfemur 0.896375 26.4843 25.9384
rtibia 0.313485
rfoot -12.1277 -23.3583
rtoes 4.04448
lfemur 10.1538 -43.111 -18.1763
ltibia -5.33385
lfoot -17.5231 50.0898
ltoes 6.87627
892
root -0.395432 17.5247 7.60081 7.18969 -2.22525 -7.10238
lowerback 1.90271 2.57672 8.98822
upperback -9.00065 4.05469 -1.18565
thorax -10.0552 1.17966 -6.71328
lowerneck -8.96511 -5.66002 -3.94359
upperneck 29.4767 -10.6142 10.5682
head 11.9465 -4.03189 3.23495
rclavicle 4.17448e-015 -3.26007e-014
rhumerus -25.6264 34.6877 -101.845
rradius 96.0864
rwrist -9.06754
rhand -10.9189 -51.9648
rfingers 7.12502
rthumb 15.0986 -441.394
lclavicle 4.17448e-015 -3.26007e-014
lhumerus -51.0099 29.2028 61.6765
lradius 109.438
lwrist 65.2748
lhand -44.2412 5.00975
lfingers 7.12502
lthumb -17.0533 34.2813
rfemur 0.875123 26.4435 25.9541
rtibia 0.31179
rfoot -12.1214 -23.3418
rtoes 3.83098
lfemur 10.1241 -43.1369 -18.1371
ltibia -5.31722
lfoot -17.5212 50.0986
ltoes 6.86666
893
root -0.395624 17.5241 7.59997 7.19095 -2.20464 -7.15863
lowerback 1.90756 2.56325 9.03907
upperback -8.97259 4.04047 -1.17161
thorax -10.0278 1.17171 -6.72446
lowerneck -9.11131 -5.65982 -3.88496
upperneck 29.5141 -10.619 10.53
head 11.9867 -4.02504 3.2065
rclavicle 1.23246e-014 2.94201e-014
rhumerus -25.3786 34.9976 -101.66
rradius 96.0311
rwrist -9.29094
rhand -11.0172 -52.1177
rfingers 7.12502
rthumb 15.0039 -441.554
lclavicle 1.23246e-014 2.94201e-014
lhumerus -50.9504 29.2167 61.7039
lradius 109.43
lwrist 65.3025
lhand -44.2169 5.08876
lfingers 7.12502
lthumb -17.03 34.3623
rfemur 0.876059 26.422 26.0177
rtibia 0.306986
rfoot -12.0962 -23.3432
rtoes 3.51698
lfemur 10.0985 -43.0838 -18.0382
ltibia -5.32062
lfoot -17.562 50.0124
ltoes 7.05361
894
root -0.396933 17.524 7.59873 7.18145 -2.19027 -7.17975
lowerback 1.90741 2.5583 9.06251
upperback -8.94084 4.03328 -1.17764
thorax -9.99147 1.16918 -6.7422
lowerneck -9.19826 -5.67698 -3.88389
upperneck 29.5115 -10.6528 10.5574
head 12.0091 -4.03375 3.20943
rclavicle -2.98177e-015 -1.43125e-014
rhumerus -25.1337 35.2895 -101.457
rradius 96.011
rwrist -9.61432
rhand -11.0518 -52.4118
rfingers 7.12502
rthumb 14.9706 -441.851
lclavicle -2.98177e-015 -1.43125e-014
lhumerus -50.8765 29.2508 61.7368
lradius 109.425
lwrist 65.2746
lhand -44.1578 5.12006
lfingers 7.12502
lthumb -16.9731 34.3985
rfemur 0.891352 26.4717 26.0603
rtibia 0.310709
rfoot -12.0869 -23.4056
rtoes 3.5028
lfemur 10.087 -43.0386 -17.9852
ltibia -5.33189
lfoot -17.5223 49.9464
ltoes 7.08851
895
root -0.398306 17.5241 7.59665 7.17416 -2.18175 -7.17135
lowerback 1.89832 2.55421 9.05518
upperback -8.91942 4.02426 -1.18762
thorax -9.9628 1.16732 -6.74667
lowerneck -9.25651 -5.71545 -3.90311
upperneck 29.543 -10.7097 10.5563
head 12.0407 -4.05847 3.20329
rclavicle -7.55382e-015 -1.11319e-014
rhumerus -25.1961 35.0215 -101.518
rradius 96.1026
rwrist -9.49778
rhand -10.8099 -52.4326
rfingers 7.12502
rthumb 15.2036 -441.854
lclavicle -7.55382e-015 -1.11319e-014
lhumerus -50.8347 29.268 61.7491
lradius 109.422
lwrist 65.2229
lhand -44.0965 5.02257
lfingers 7.12502
lthumb -16.9141 34.306
rfemur 0.897303 26.5419 26.0666
rtibia 0.316
rfoot -12.0996 -23.4789
rtoes 3.62232
lfemur 10.0667 -43.0339 -17.9744
ltibia -5.32707
lfoot -17.445 49.9443
ltoes 6.86118
896
root -0.398602 17.5241 7.59461 7.16417 -2.17426 -7.16321
lowerback 1.91372 2.54353 9.0506
upperback -8.91895 4.01104 -1.18838
thorax -9.97412 1.16046 -6.74493
lowerneck -9.30065 -5.749 -3.98213
upperneck 29.6161 -10.7588 10.5755
head 12.0902 -4.0831 3.21778
rclavicle 8.74653e-015 -1.59028e-014
rhumerus -25.3213 34.7471 -101.643
rradius 96.1983
rwrist -9.31627
rhand -10.6416 -52.42
rfingers 7.12502
rthumb 15.3658 -441.829
lclavicle 8.74653e-015 -1.59028e-014
lhumerus -50.8562 29.2869 61.7307
lradius 109.435
lwrist 65.2165
lhand -44.1412 4.68489
lfingers 7.12502
lthumb -16.9571 33.9647
rfemur 0.907042 26.5293 26.0583
rtibia 0.294766
rfoot -12.1012 -23.4824
rtoes 3.73616
lfemur 10.0711 -43.0766 -17.9969
ltibia -5.3145
lfoot -17.4374 50.0011
ltoes 6.79218
897
root -0.398383 17.524 7.59327 7.15796 -2.1659 -7.17665
lowerback 1.93769 2.54213 9.07417
upperback -8.93179 4.01386 -1.19201
thorax -10.0016 1.15756 -6.76458
lowerneck -9.32971 -5.769 -4.10855
upperneck 29.6894 -10.7963 10.6548
head 12.1427 -4.10128 3.26573
rclavicle 3.8763e-014 -4.77083e-015
rhumerus -25.3353 34.7119 -101.643
rradius 96.27
rwrist -9.3538
rhand -10.4246 -52.5515
rfingers 7.12502
rthumb 15.5748 -441.944
lclavicle 3.8763e-014 -4.77083e-015
lhumerus -50.8702 29.2987 61.7241
lradius 109.428
lwrist 65.2487
lhand -44.1644 4.39657
lfingers 7.12502
lthumb -16.9795 33.6744
rfemur 0.915757 26.5057 26.0716
rtibia 0.269114
rfoot -12.0701 -23.4765
rtoes 3.82015
lfemur 10.0849 -43.1339 -18.0005
ltibia -5.30599
lfoot -17.4814 50.0438
ltoes 6.9594
